<?xml version="1.0" ?><svg id="Layer_1" style="enable-background:new 0 0 256 256;" version="1.1" viewBox="0 0 256 256" xml:space="preserve" xmlns="http://www.w3.org/2000/svg" xmlns:xlink="http://www.w3.org/1999/xlink"><g><path d="M217.4,77.8c-0.7-3.9-1.5-7.2-2.3-9.6c-12.4-36.8-46.7-61.8-85.4-62.1h-3.5c-38.7,0.3-73,25.3-85.4,62.1   c-0.8,2.4-1.6,5.7-2.3,9.6c-2.7,15.4-1,30.9,4.9,44.6c0.2,0.4,0.4,0.9,0.7,1.6c4.8,10.6,11.9,22.9,18.8,34.8   c5.9,10.3,12,20.9,16.4,29.9c1.2,2.4,4.1,3.4,6.5,2.2c2.4-1.2,3.4-4.1,2.2-6.5c-4.5-9.4-10.7-20.1-16.7-30.5   c-6.7-11.7-13.7-23.8-18.3-34l-0.6-1.2c-5.3-12.2-6.8-25.8-4.4-39.3c0.6-3.5,1.2-6.2,1.9-8.2c11.1-32.9,41.7-55.2,76.2-55.5h3.4   c34.5,0.3,65.2,22.6,76.3,55.5c0.7,2,1.3,4.7,1.9,8.2c2.4,13.5,0.9,27.1-4.4,39.2c-0.1,0.3-0.3,0.6-0.4,0.9l-0.2,0.4   c-4.7,10.2-11.6,22.3-18.3,34c-6,10.4-12.1,21.1-16.7,30.5c-1.2,2.4-0.2,5.3,2.2,6.5c0.7,0.3,1.4,0.5,2.1,0.5c1.8,0,3.5-1,4.4-2.7   c4.4-9.1,10.5-19.7,16.4-29.9c6.8-11.9,13.9-24.2,18.8-34.9l0.6-1.3C218.4,108.7,220.1,93.2,217.4,77.8z"/><path d="M163.3,202.5H92.8c-2.4,0-4.6,1.1-6.2,2.9c-1.5,1.8-2.1,4.2-1.7,6.6l3.4,17.8c0.7,3.8,4,6.5,7.9,6.5h5.4   c6.1,8.5,16,13.6,26.5,13.6c10.5,0,20.4-5.2,26.5-13.6h5.4c3.8,0,7.1-2.7,7.9-6.5l3.4-17.8c0.4-2.3-0.2-4.7-1.7-6.6   C167.9,203.5,165.6,202.5,163.3,202.5z M158.5,226.6h-6.6c-1.7,0-3.3,0.9-4.2,2.4c-4.1,6.9-11.6,11.3-19.7,11.3   c-8,0-15.6-4.3-19.7-11.3c-0.9-1.5-2.5-2.4-4.2-2.4h-6.6l-2.7-14.4h66.4L158.5,226.6z"/><path d="M119.6,107.2c1,1,2.2,1.5,3.5,1.5c1.2,0,2.4-0.4,3.3-1.3l19-18.1c1.9-1.8,2-4.9,0.2-6.8c-1.8-1.9-4.9-2-6.9-0.2l-15.5,14.7   l-5.8-6c-1.9-1.9-4.9-2-6.9-0.1c-1.9,1.9-2,4.9-0.1,6.9L119.6,107.2z"/><path d="M87.7,118.1c-1.7,1.7-1.9,4.3-0.5,6.3c3.2,4.4,7.1,8.3,11.5,11.5c1.9,1.4,4.2,1.4,5.9-0.2c0.2-0.2,0.4-0.3,0.6-0.5   c0.8-0.8,1.6-1.7,2.5-2.5c0.1-0.1,0.2-0.2,0.3-0.3c2.5,1.4,5.2,2.4,7.9,3.3c0,0.3,0,0.5,0,0.8c0,1.1,0,2.1,0,3.4   c0,2.4,1.7,4.4,4.1,4.8c2.6,0.4,5.2,0.6,8.1,0.6c2.7,0,5.4-0.2,8-0.6c2.4-0.4,4.1-2.6,4.1-5c0-1.1,0-2.1,0-3.2c0-0.3,0-0.5,0-0.8   c2.7-0.8,5.4-1.9,7.9-3.3c0,0,0.1,0.1,0.1,0.1c0.9,0.9,1.8,1.8,2.7,2.7c0,0,0.1,0.1,0.1,0.1c0.6,0.7,1.5,1.1,2.4,1.4   c1.4,0.3,2.8,0,4-0.8c4.5-3.2,8.3-7.1,11.5-11.5c1.4-1.9,1.2-4.6-0.5-6.3l-1.6-1.7c-0.5-0.5-0.9-0.9-1.3-1.4c1.4-2.5,2.5-5.2,3.3-8   l4,0c0.5,0,1.3-0.1,1.8-0.3c1.7-0.6,3-2,3.3-3.8c0.5-2.7,0.7-5.4,0.7-8.2c0-2.6-0.2-5.4-0.7-8.2c-0.4-2.3-2.4-4.1-4.8-4.1l-1.9,0   c-0.8,0-1.6,0-2.4,0c-0.8-2.7-1.9-5.3-3.3-7.8c1-1,2-2,3-2.9c1.7-1.7,2-4.4,0.6-6.3c-3.2-4.5-7.1-8.3-11.6-11.6   c-1.9-1.4-4.6-1.2-6.3,0.6c-0.8,0.8-1.7,1.7-2.5,2.5c-0.2,0.2-0.3,0.3-0.5,0.5c-2.5-1.4-5.2-2.4-7.9-3.3v-0.1c0-0.2,0-0.3,0-0.5   l0-1.3c0-0.7,0-1.4,0-2.4c0-2.4-1.7-4.4-4.1-4.8c-5.4-0.8-10.6-0.8-16,0c-2.4,0.4-4.2,2.6-4.1,5.1c0,0.7,0,1.4,0,2.1l0,1.9   c-2.7,0.8-5.4,1.9-7.9,3.2c-0.1-0.1-0.3-0.3-0.4-0.4c-0.9-0.8-1.7-1.7-2.5-2.5c-1.7-1.7-4.4-2-6.3-0.6c-4.5,3.2-8.4,7.1-11.6,11.6   c-1.4,2-1.2,4.6,0.6,6.3c1,1,2,1.9,3,2.9c-1.4,2.5-2.4,5.1-3.3,7.8c-0.8,0-1.6,0-2.4,0l-1.9,0c-2.4,0-4.4,1.7-4.8,4   c-0.5,2.7-0.7,5.4-0.7,8.3c0,2.7,0.2,5.4,0.7,8.1c0.3,1.9,1.8,3.5,3.6,3.9c0.4,0.1,1.1,0.1,1.5,0.2l3.9,0c0.8,2.8,2,5.5,3.3,8   c-0.4,0.4-0.8,0.8-1.2,1.2L87.7,118.1z M87.4,97.4c-0.1-0.8-0.1-1.7-0.1-2.5c0-0.9,0-1.7,0.1-2.6c1,0,1.9,0,3,0.1   c0.7,0,1.4-0.1,2-0.2c1.8-0.5,3.2-1.9,3.5-3.7c0.8-4.2,2.5-8.1,4.8-11.6c1-1.6,1.1-3.6,0.1-5.2c-0.5-0.8-1-1.3-1.6-1.9   c-0.6-0.6-1.1-1.1-1.7-1.7c1.1-1.3,2.3-2.5,3.6-3.6c0.7,0.7,1.3,1.3,1.9,1.9c0.8,0.9,1.6,1.5,2.6,1.8c1.4,0.5,3,0.4,4.3-0.5   c3.6-2.4,7.6-4,11.7-4.8c1.6-0.3,2.9-1.4,3.6-2.9c0.4-1,0.4-1.9,0.4-2.5c0-0.6,0-1.2,0-1.7v-1.2c1.6-0.1,3.2-0.1,4.8,0l0,0.7   c0,0.7,0,1.4,0,2.2c-0.1,0.9,0.1,1.8,0.4,2.7c0.6,1.5,1.9,2.6,3.6,2.9c4.1,0.8,8.1,2.4,11.7,4.8c1.2,0.8,2.8,1,4.2,0.6   c1-0.3,1.9-1,2.6-1.7c0.7-0.7,1.3-1.4,2-2c1.3,1.1,2.5,2.3,3.6,3.6c-0.6,0.6-1.1,1.1-1.6,1.7c-0.6,0.5-1.2,1.1-1.7,1.9   c-1,1.6-0.9,3.6,0.1,5.2c2.4,3.5,4,7.4,4.8,11.6c0.4,1.8,1.7,3.3,3.5,3.7c0.6,0.2,1.3,0.3,2.2,0.2c0.9,0,1.8-0.1,2.8-0.1   c0.1,0.9,0.1,1.7,0.1,2.6c0,0.9,0,1.7-0.1,2.5l-3.5,0c-0.7,0-1.6,0.2-2.3,0.5c-1.4,0.6-2.4,1.9-2.7,3.4c-0.9,4.3-2.5,8.2-4.9,11.8   c-1.1,1.6-1.1,3.6-0.1,5.3c0.4,0.6,0.8,1,1.1,1.3c0.7,0.7,1.5,1.4,2.2,2.2c-1.1,1.2-2.3,2.4-3.5,3.5c-0.7-0.7-1.5-1.5-2.3-2.3   c-0.4-0.4-0.9-0.8-1.3-1.1c-1.6-1-3.6-0.9-5.2,0.1c-3.6,2.4-7.5,4-11.7,4.8c-1.8,0.3-3.2,1.7-3.7,3.4c-0.2,0.8-0.3,1.6-0.2,2.2   c0,1,0,1.9,0,2.9c-1.6,0.1-3.2,0.1-4.8,0c0-1,0-2,0-3.1c0-0.4,0-1.2-0.2-2c-0.5-1.7-1.9-3-3.7-3.4c-4.2-0.8-8.2-2.4-11.7-4.8   c-1.6-1-3.6-1.1-5.2-0.1c-0.5,0.3-0.9,0.6-1.4,1.1c-0.7,0.8-1.5,1.5-2.2,2.2c-1.3-1.1-2.4-2.3-3.5-3.5c0.7-0.7,1.5-1.5,2.3-2.3   c0.2-0.2,0.7-0.7,1-1.3c0.9-1.6,0.9-3.6-0.2-5.2c-2.4-3.6-4.1-7.6-4.9-11.8c-0.3-1.7-1.6-3.1-3.2-3.6c-0.5-0.2-1.1-0.2-1.8-0.3   L87.4,97.4z"/></g></svg>