<?xml version="1.0" ?><svg id="Layer_1_1_" style="enable-background:new 0 0 64 64;" version="1.1" viewBox="0 0 64 64" xml:space="preserve" xmlns="http://www.w3.org/2000/svg" xmlns:xlink="http://www.w3.org/1999/xlink"><g><path d="M58.816,33H63v-6h-4.184c-0.302-0.847-0.969-1.514-1.816-1.816V20c0-1.654-1.346-3-3-3h-1V7.586L46.414,1H15v16h-1   c-1.654,0-3,1.346-3,3v5.184C10.153,25.486,9.486,26.153,9.184,27H5c-1.654,0-3,1.346-3,3v8.369   c-0.802,0.909-1.15,2.125-0.938,3.336c0.284,1.623,1.611,2.952,3.229,3.233c0.234,0.041,0.469,0.061,0.702,0.061   c0.941,0,1.854-0.326,2.58-0.938C8.48,43.3,9,42.184,9,41c0-0.966-0.359-1.901-1-2.63V33h1.184   c0.302,0.847,0.969,1.514,1.816,1.816v10.77l-2.535,2.535C7.521,49.065,7,50.321,7,51.657V58c0,2.757,2.243,5,5,5h44   c2.757,0,5-2.243,5-5v-6.343c0-1.336-0.521-2.592-1.465-3.536L57,45.586v-10.77C57.847,34.514,58.514,33.847,58.816,33z M55,45H13   V35h6.406c2.725,4.947,7.851,8,13.538,8h2.111c5.687,0,10.813-3.053,13.538-8H55V45z M49,27v6H19v-6H49z M47,4.414L49.586,7H47   V4.414z M21.739,35H25v3.42C23.734,37.495,22.629,36.342,21.739,35z M27,35h2v5.412c-0.69-0.209-1.358-0.474-2-0.789V35z M31,35h2   v6h-0.056c-0.658,0-1.307-0.048-1.944-0.14V35z M35,35h2v5.86C36.363,40.952,35.714,41,35.056,41H35V35z M39,35h2v4.623   c-0.642,0.315-1.31,0.58-2,0.789V35z M43,35h3.261c-0.891,1.342-1.996,2.495-3.261,3.42V35z M57,32c0,0.552-0.448,1-1,1h-5v-6h5   c0.552,0,1,0.448,1,1V32z M61,31h-2v-2h2V31z M54,19c0.552,0,1,0.448,1,1v5h-2v-6H54z M45,3v6h6v16H17V3H45z M14,19h1v6h-2v-5   C13,19.448,13.448,19,14,19z M11,28c0-0.552,0.448-1,1-1h5v6h-5c-0.552,0-1-0.448-1-1V28z M6,31v8.223l0.33,0.298   C6.762,39.91,7,40.436,7,41c0,0.592-0.26,1.149-0.714,1.531c-0.459,0.386-1.046,0.542-1.653,0.437   c-0.789-0.137-1.462-0.812-1.601-1.607c-0.122-0.694,0.11-1.364,0.637-1.839L4,39.224V30c0-0.552,0.448-1,1-1h4v2H6z    M58.121,49.535C58.688,50.102,59,50.855,59,51.657V58c0,1.654-1.346,3-3,3H12c-1.654,0-3-1.346-3-3v-6.343   c0-0.802,0.312-1.556,0.879-2.122L12.414,47h43.172L58.121,49.535z"/><rect height="2" width="2" x="31" y="57"/><rect height="2" width="2" x="29" y="53"/><rect height="2" width="2" x="35" y="57"/><rect height="2" width="2" x="33" y="53"/><rect height="2" width="2" x="39" y="57"/><rect height="2" width="2" x="37" y="53"/><rect height="2" width="2" x="43" y="57"/><rect height="2" width="2" x="41" y="53"/><rect height="2" width="2" x="47" y="57"/><rect height="2" width="2" x="45" y="53"/><rect height="2" width="2" x="51" y="57"/><rect height="2" width="2" x="49" y="53"/><rect height="2" width="2" x="15" y="57"/><rect height="2" width="2" x="13" y="53"/><rect height="2" width="2" x="19" y="57"/><rect height="2" width="2" x="17" y="53"/><rect height="2" width="2" x="23" y="57"/><rect height="2" width="2" x="21" y="53"/><rect height="2" width="2" x="27" y="57"/><rect height="2" width="2" x="25" y="53"/><rect height="2" width="2" x="29" y="49"/><rect height="2" width="2" x="33" y="49"/><rect height="2" width="2" x="37" y="49"/><rect height="2" width="2" x="41" y="49"/><rect height="2" width="2" x="45" y="49"/><rect height="2" width="2" x="49" y="49"/><rect height="2" width="2" x="53" y="53"/><rect height="2" width="2" x="53" y="49"/><rect height="2" width="2" x="13" y="49"/><rect height="2" width="2" x="17" y="49"/><rect height="2" width="2" x="21" y="49"/><rect height="2" width="2" x="25" y="49"/><rect height="2" width="2" x="19" y="5"/><rect height="2" width="20" x="23" y="5"/><rect height="2" width="24" x="19" y="9"/><rect height="2" width="30" x="19" y="13"/><rect height="2" width="30" x="19" y="17"/><rect height="2" width="30" x="19" y="21"/><rect height="2" width="2" x="51" y="41"/><rect height="2" width="2" x="51" y="37"/><rect height="2" width="2" x="15" y="41"/><rect height="2" width="2" x="15" y="37"/></g></svg>