<?xml version="1.0" ?><!DOCTYPE svg  PUBLIC '-//W3C//DTD SVG 1.1//EN'  'http://www.w3.org/Graphics/SVG/1.1/DTD/svg11.dtd'><svg height="512px" style="enable-background:new 0 0 512 512;" version="1.1" viewBox="0 0 512 512" width="512px" xml:space="preserve" xmlns="http://www.w3.org/2000/svg" xmlns:xlink="http://www.w3.org/1999/xlink"><g id="_x32_99_x2C__group_x2C__business_x2C__meeting_x2C__people_x2C__team"><g><path d="M322.59,299.545v14.922h11.852v-14.922H322.59z M341.842,317.865    l7.146,37.213h39.889v-40.822c0-2.137,1.713-3.851,3.85-3.851c2.119,0,3.85,1.714,3.85,3.851v41.123h25.104V290.37l-57.426-22.563    v28.038c0,2.045-1.656,3.699-3.699,3.699h-18.713V317.865z M341.48,355.078l-6.377-33.212h-13.328l-6.813,28.309l12.516,4.903    H341.48z M320.168,287.873c-0.586,1.443-1.235,2.888-1.909,4.271h0.526h0.105h5.713L320.168,287.873z M285.42,202.316    c7.553,3.34,14.364,8.033,20.113,13.809c6.826,6.83,12.182,15.133,15.522,24.428l3.112,0.451c1.686,0.211,3.43,0.33,5.219,0.33    c12.23,0,23.3-4.963,31.316-12.995c8.001-8.001,12.967-19.072,12.967-31.315c0-12.124-4.875-23.104-12.771-31.105l-0.195-0.182    c-8.017-8.032-19.086-12.996-31.316-12.996c-12.227,0-23.313,4.964-31.315,12.967c-8.001,8.031-12.967,19.102-12.967,31.316    c0,1.263,0.063,2.466,0.15,3.699L285.42,202.316z M287.122,211.764l-0.06,0.12l0,0l-0.063,0.149l-0.344,0.783l-0.046,0.15    c-1.084,2.377-2.302,4.693-3.639,6.918c-1.685,2.799-3.58,5.477-5.657,8.004c4.902,4.512,10.591,8.211,16.817,10.858    c6.106,2.587,12.753,4.182,19.734,4.573c-2.949-8.273-7.7-15.674-13.779-21.75C296.25,217.721,291.888,214.44,287.122,211.764z     M204.53,240.281c2.843,1.113,5.773,2.016,8.798,2.708c4.061,0.903,8.349,1.354,12.771,1.354c12.62,0,24.307-3.972,33.856-10.74    c3.281-2.316,6.317-4.963,9.055-7.882l0.196-0.24c2.691-2.919,5.1-6.138,7.177-9.567c1.127-1.864,2.134-3.79,3.067-5.775    l0.046-0.12l0.046-0.12h0.027l0.032-0.12l0.06-0.12l0.045-0.091l0.061-0.151h0.014l0.031-0.09l0.06-0.12l0.06-0.12l0.046-0.12    l0.015-0.03l0.031-0.09l0.06-0.121l0.046-0.119l0.045-0.121c-4.979-1.986-10.304-3.309-15.855-3.82l-0.06-0.029l-1.414-0.092    l-0.134-0.029h-0.196h-0.015l-0.196-0.03h-0.15h-0.06l-0.303-0.03h-0.091h-0.211h-0.042l-0.168-0.029h-0.18h-0.014h-0.211h-0.137    h-0.06l-0.21-0.031h-0.092h-0.119h-0.211h-0.014h-0.196h-0.151h-0.046h-0.192h-0.123h-0.088h-0.21h-0.063h-0.147h-0.211h-0.571    h-0.183h-0.422h-0.329h-0.242l-0.509,0.031h-0.091l-0.572,0.029h-0.091l-0.48,0.03h-0.271l-0.316,0.03l-0.435,0.029l-0.137,0.031    l-0.586,0.029h-0.014l-0.558,0.061l-0.179,0.029l-0.393,0.03l-0.361,0.03l-0.21,0.03l-0.509,0.061h-0.06l-0.558,0.089h-0.12    l-0.438,0.091l-0.298,0.03l-0.271,0.03l-0.453,0.091h-0.119l-0.544,0.119h-0.06l-0.509,0.091l-0.21,0.06l-0.723,0.121l-0.183,0.03    l-0.526,0.12h-0.014l-0.555,0.12l-0.137,0.03c-0.961,0.24-1.895,0.481-2.829,0.752l-0.302,0.061l-0.39,0.119l-0.137,0.061    c-9.398,2.828-17.821,7.942-24.591,14.711C211.809,226.895,207.492,233.242,204.53,240.281z M272.08,233.513    c-2.394,2.286-4.966,4.423-7.672,6.349c-10.83,7.67-24.05,12.183-38.309,12.183c-4.903,0-9.732-0.542-14.424-1.563    c-3.309-0.753-6.545-1.745-9.658-2.949c-1.355,4.934-2.074,10.139-2.074,15.523c0,16.185,6.57,30.865,17.175,41.455    c10.62,10.618,25.3,17.207,41.485,17.207c16.2,0,30.863-6.589,41.482-17.207c10.605-10.59,17.18-25.271,17.18-41.455    c0-4.121-0.422-8.093-1.222-11.973c-8.826-0.121-17.249-1.986-24.938-5.265C284.068,242.809,277.629,238.627,272.08,233.513z     M248.662,395.088v21.57h17.628v-21.57H248.662z M273.674,420.058l9.507,49.396h53.833v-54.179c0-2.136,1.73-3.851,3.85-3.851    c2.123,0,3.85,1.715,3.85,3.851v54.511h34.867v-86.309l-52.72-20.697c-0.769-0.06-1.488-0.361-2.06-0.813l-15.509-6.076    l-0.091-0.03l-0.074-0.06l-6.349-2.467v38.055c0,2.045-1.653,3.699-3.686,3.699h-25.419V420.058z M229.363,469.453l11.911-49.456    v-24.909h-25.419c-2.032,0-3.699-1.654-3.699-3.699v-38.055l-76.788,30.143v86.309h34.867v-54.511c0-2.136,1.73-3.851,3.85-3.851    c2.12,0,3.85,1.715,3.85,3.851v54.179H229.363z M275.66,469.453l-8.725-45.395h-19.074l-10.918,45.395H275.66z M191.878,291.182    h5.745h0.091h0.769c-0.677-1.504-1.341-2.978-1.913-4.512L191.878,291.182z M159.646,267.357v23.824h18.604h0.105h7.928    L159.646,267.357z M182.041,298.553v14.92h11.883v-14.92H182.041z M189.021,354.086l12.515-4.904l-6.815-28.308h-13.312    l-6.391,33.212H189.021z M167.512,354.086l7.145-37.213v-18.32h-18.712c-2.029,0-3.685-1.654-3.685-3.701v-28.036l-57.444,22.562    v65.01h25.104v-41.124c0-2.136,1.73-3.851,3.854-3.851c2.134,0,3.85,1.715,3.85,3.851v40.823H167.512z M289.347,358.598    c-0.389,0.632-0.961,1.113-1.624,1.444l-29.119,26.052c-1.414,1.354-3.685,1.384-5.116,0l-33.934-32.641v34.234h25.318h0.105    h24.998h0.105h25.313v-34.504L289.347,358.598z M289.769,321.656l0.119,26.563l4.439-3.971c1.007-0.902,2.376-1.143,3.563-0.752    c0.393-0.12,0.782-0.181,1.203-0.181c1.387,0,2.604,0.752,3.236,1.926l5.714,2.226l7.145-29.661v-18.261h-1.158    c-2.48,3.761-5.324,7.25-8.496,10.409C300.9,314.587,295.604,318.527,289.769,321.656z M232.581,324.094l0.119,31.797    l23.437,22.532l26.11-23.345l-0.137-29.963c-7.293,2.768-15.234,4.303-23.507,4.303    C249.367,329.418,240.569,327.521,232.581,324.094z M225,348.459l-0.119-28.246c-4.829-2.859-9.269-6.318-13.207-10.259    c-3.432-3.43-6.513-7.251-9.131-11.401h-1.218v18.26l7.219,29.993l4.092-1.595c0.632-1.144,1.835-1.896,3.218-1.896    c0.421,0,0.811,0.061,1.172,0.181c1.386-0.451,2.86-0.029,3.822,0.993L225,348.459z M212.486,79.88V37.162h-41.152    c-3.355,0-6.409,1.384-8.62,3.58c-2.197,2.195-3.565,5.264-3.565,8.604v42.357c0,3.369,1.369,6.407,3.58,8.633    c2.197,2.196,5.25,3.55,8.605,3.55h3.969c2.046,0,3.702,1.655,3.702,3.701v11.671l23.584-14.62c0.6-0.48,1.383-0.752,2.197-0.752    h43.56c3.352,0,6.405-1.354,8.616-3.579c1.327-1.324,2.348-2.948,2.948-4.783c-6.422,0.271-15.582,0.932-30.862,0.932    c-2.211,0-4.362-0.48-6.334-1.293c-2.046-0.842-3.864-2.076-5.384-3.58c-1.505-1.504-2.737-3.339-3.58-5.385    C212.938,84.212,212.486,82.076,212.486,79.88z M219.887,35.177V79.88c0,1.264,0.239,2.437,0.674,3.489    c0.467,1.113,1.162,2.137,2.004,2.979c0.871,0.873,1.877,1.564,2.976,2.016c1.067,0.422,2.257,0.692,3.506,0.692h45.968    c0.824,0,1.607,0.12,2.376,0.36c0.719,0.24,1.396,0.602,2.028,1.053l19.119,11.854v-5.686c0-2.076,0.856-4.002,2.239-5.355    c1.354-1.383,3.264-2.226,5.355-2.226h4.212c1.249,0,2.436-0.271,3.488-0.692c1.099-0.451,2.106-1.143,2.966-2.016l0.179-0.15    c0.769-0.812,1.415-1.775,1.835-2.828c0.436-1.053,0.691-2.226,0.691-3.489V35.177c0-1.263-0.238-2.437-0.677-3.489    c-0.464-1.113-1.158-2.137-2.001-2.979c-0.855-0.872-1.877-1.564-2.993-2.016c-1.053-0.421-2.239-0.691-3.488-0.691h-81.298    c-1.263,0-2.453,0.271-3.506,0.691c-1.112,0.451-2.12,1.144-2.948,1.986c-0.871,0.871-1.565,1.895-2.015,3.008    C220.126,32.74,219.887,33.914,219.887,35.177z M187.112,151.778c-12.23,0-23.299,4.934-31.333,12.935    c-7.988,8.033-12.95,19.104-12.95,31.316c0,12.244,4.948,23.314,12.95,31.317c8.033,8.031,19.102,12.995,31.333,12.995    c1.79,0,3.534-0.119,5.219-0.301l3.127-0.512c3.071-8.513,7.854-16.215,13.898-22.712c6.078-6.528,13.462-11.823,21.72-15.463    l0.165-1.624c0.105-1.233,0.151-2.438,0.151-3.701c0-12.213-4.962-23.283-12.964-31.285l-0.183-0.211    C210.243,156.651,199.248,151.778,187.112,151.778z M245.156,42.096c-2.046,0-3.699-1.654-3.699-3.699    c0-2.017,1.653-3.67,3.699-3.67h53.428c2.043,0,3.699,1.653,3.699,3.67c0,2.045-1.656,3.699-3.699,3.699H245.156z M245.156,63.756    c-2.046,0-3.699-1.654-3.699-3.7c0-2.017,1.653-3.67,3.699-3.67h53.428c2.043,0,3.699,1.653,3.699,3.67    c0,2.046-1.656,3.7-3.699,3.7H245.156z M94.019,485.999c-2.046,0-3.699-1.654-3.699-3.7c0-2.045,1.653-3.7,3.699-3.7h207.934    c2.028,0,3.699,1.655,3.699,3.7c0,2.046-1.671,3.7-3.699,3.7H94.019z M410.235,478.599c2.046,0,3.699,1.655,3.699,3.7    c0,2.046-1.653,3.7-3.699,3.7h-47.638c-2.043,0-3.699-1.654-3.699-3.7c0-2.045,1.656-3.7,3.699-3.7H410.235z M330.229,292.145    h7.91h0.105h18.607V268.35L330.229,292.145z" style="fill-rule:evenodd;clip-rule:evenodd;"/></g></g><g id="Layer_1"/></svg>